HIERARCHY
ROOT Hips
{
	OFFSET 0.000000 0.000000 0.000000
	CHANNELS 6 Xposition Yposition Zposition Xrotation Yrotation Zrotation
	JOINT LeftUpLeg_virtual
	{
		OFFSET 0.000000 0.000000 0.000000
		CHANNELS 3 Xrotation Yrotation Zrotation
		JOINT LeftUpLeg
		{
			OFFSET 10.205400 -3.823500 0.155100
			CHANNELS 3 Xrotation Yrotation Zrotation
			JOINT LeftLeg
			{
				OFFSET 0.708757 -12.982077 0.567790
				CHANNELS 3 Xrotation Yrotation Zrotation
				JOINT LeftFoot
				{
					OFFSET -0.708756 -10.717838 -2.184338
					CHANNELS 3 Xrotation Yrotation Zrotation
					JOINT LeftToeBase
					{
						OFFSET 0.108149 -7.191104 7.560241
						CHANNELS 3 Xrotation Yrotation Zrotation
						JOINT LeftToe_End
						{
							OFFSET 0.070230 0.081724 4.490308
							CHANNELS 3 Xrotation Yrotation Zrotation
							End Site
							{
								OFFSET 0 0 0
							}
						}
					}
				}
			}
		}
	}
	JOINT RightUpLeg_virtual
	{
		OFFSET 0.000000 0.000000 0.000000
		CHANNELS 3 Xrotation Yrotation Zrotation
		JOINT RightUpLeg
		{
			OFFSET -10.205400 -3.823500 0.005500
			CHANNELS 3 Xrotation Yrotation Zrotation
			JOINT RightLeg
			{
				OFFSET -0.708756 -12.982134 0.610632
				CHANNELS 3 Xrotation Yrotation Zrotation
				JOINT RightFoot
				{
					OFFSET 0.708754 -10.717769 -1.945823
					CHANNELS 3 Xrotation Yrotation Zrotation
					JOINT RightToeBase
					{
						OFFSET -0.108140 -7.191069 7.372968
						CHANNELS 3 Xrotation Yrotation Zrotation
						JOINT RightToe_End
						{
							OFFSET -0.070227 0.081735 4.479403
							CHANNELS 3 Xrotation Yrotation Zrotation
							End Site
							{
								OFFSET 0 0 0
							}
						}
					}
				}
			}
		}
	}
	JOINT Spine_virtual
	{
		OFFSET 0.000000 0.000000 0.000000
		CHANNELS 3 Xrotation Yrotation Zrotation
		JOINT Spine
		{
			OFFSET 0.000000 6.876099 0.125700
			CHANNELS 3 Xrotation Yrotation Zrotation
			JOINT Spine1
			{
				OFFSET 0.000000 5.730043 0.104720
				CHANNELS 3 Xrotation Yrotation Zrotation
				JOINT Spine1_split
				{
					OFFSET 0.000000 5.730043 0.104720
					CHANNELS 3 Xrotation Yrotation Zrotation
					JOINT Spine2
					{
						OFFSET 0.000000 5.730043 0.104720
						CHANNELS 3 Xrotation Yrotation Zrotation
						JOINT Neck_virtual
						{
							OFFSET 0.000000 0.000000 0.000000
							CHANNELS 3 Xrotation Yrotation Zrotation
							JOINT Neck
							{
								OFFSET 0.000000 10.314075 0.188496
								CHANNELS 3 Xrotation Yrotation Zrotation
								JOINT Head
								{
									OFFSET 0.000000 7.643700 -2.377400
									CHANNELS 3 Xrotation Yrotation Zrotation
									JOINT HeadTop_End
									{
										OFFSET 0.000000 43.788605 -13.619600
										CHANNELS 3 Xrotation Yrotation Zrotation
										End Site
										{
											OFFSET 0 0 0
										}
									}
								}
							}
						}
						JOINT LeftShoulder_virtual
						{
							OFFSET 0.000000 0.000000 0.000000
							CHANNELS 3 Xrotation Yrotation Zrotation
							JOINT LeftShoulder
							{
								OFFSET 2.196100 4.412489 0.087492
								CHANNELS 3 Xrotation Yrotation Zrotation
								JOINT LeftShoulder_split
								{
									OFFSET 2.196100 4.412489 0.087492
									CHANNELS 3 Xrotation Yrotation Zrotation
									JOINT LeftArm
									{
										OFFSET 8.771219 -2.981674 -0.026999
										CHANNELS 3 Xrotation Yrotation Zrotation
										JOINT LeftForeArm
										{
											OFFSET 8.512804 0.000000 -0.000000
											CHANNELS 3 Xrotation Yrotation Zrotation
											JOINT LeftHand
											{
												OFFSET 18.484802 0.000000 -0.000000
												CHANNELS 3 Xrotation Yrotation Zrotation
												End Site
												{
													OFFSET 0 0 0
												}
											}
										}
									}
								}
							}
						}
						JOINT RightShoulder_virtual
						{
							OFFSET 0.000000 0.000000 0.000000
							CHANNELS 3 Xrotation Yrotation Zrotation
							JOINT RightShoulder
							{
								OFFSET -2.196100 4.412496 0.070690
								CHANNELS 3 Xrotation Yrotation Zrotation
								JOINT RightShoulder_split
								{
									OFFSET -2.196100 4.412496 0.070690
									CHANNELS 3 Xrotation Yrotation Zrotation
									JOINT RightArm
									{
										OFFSET -8.771282 -2.981682 -0.094208
										CHANNELS 3 Xrotation Yrotation Zrotation
										JOINT RightForeArm
										{
											OFFSET -8.494598 0.000000 0.000000
											CHANNELS 3 Xrotation Yrotation Zrotation
											JOINT RightHand
											{
												OFFSET -18.483803 0.000000 0.000001
												CHANNELS 3 Xrotation Yrotation Zrotation
												End Site
												{
													OFFSET 0 0 0
												}
											}
										}
									}
								}
							}
						}
					}
				}
			}
		}
	}
}
MOTION
Frames: 5
Frame Time: 0.03333333
0.563927 45.881683 6.602777 0.000000 0.000000 0.000000 -87.162510 -4.719640 -0.224229 -6.660129 15.672207 17.760218 9.119382 2.831571 3.966331 8.977298 30.362814 -24.118057 -6.035584 0.199381 1.493430 0.000000 0.000000 0.000000 -88.375189 -2.023326 1.095969 -4.202349 -16.242190 -15.112480 15.977605 -1.578771 -9.572053 16.358657 -34.930028 33.244395 -10.822348 1.600801 -1.955733 0.000000 0.000000 0.000000 -86.558154 -6.223782 -2.646206 4.701570 1.607589 0.229225 16.698902 3.921632 -1.748786 0.366587 -0.366909 -0.092238 0.000000 0.000000 0.000000 15.133841 3.750369 -2.310543 -1.995938 0.839720 -3.725747 21.398967 4.772043 -8.610354 0.000000 0.000000 0.000000 16.759058 3.318982 -1.719772 -0.466150 7.329351 1.945955 -0.299705 -1.260696 -3.047034 15.578354 -51.352490 -39.671422 -0.727421 -80.740117 -0.089750 0.000000 0.000000 0.000000 15.150394 3.463995 -2.179400 0.888811 1.709593 14.229808 1.562800 2.525824 1.865631 -33.803364 34.236292 62.209834 178.408448 53.757106 179.896377 0.000000 0.000000 0.000000 
0.552397 45.837563 6.516823 0.000000 0.000000 0.000000 -87.047482 -5.168597 -0.597141 -6.614645 15.311001 17.909596 9.119307 3.172523 4.017554 8.507913 30.769278 -24.103540 -6.061366 0.210038 1.348680 0.000000 0.000000 0.000000 -88.303875 -2.604594 0.577418 -4.607833 -16.419450 -14.765283 15.250103 -1.542264 -9.354513 16.878128 -34.463191 33.211863 -11.342114 1.574706 -1.790514 0.000000 0.000000 0.000000 -86.518956 -6.673946 -2.861299 4.057329 1.424431 0.186590 16.415627 3.714302 -1.614145 0.510387 -0.178446 -0.153333 0.000000 0.000000 0.000000 14.900742 3.607546 -2.201785 -1.175463 0.673532 -3.589643 21.970342 4.942183 -8.806172 0.000000 0.000000 0.000000 16.574868 3.118285 -1.598832 -0.385512 6.687527 1.636112 -0.354336 -1.333128 -2.843808 16.672927 -50.336206 -39.926673 -0.769106 -80.987595 -0.293117 0.000000 0.000000 0.000000 15.045457 3.317485 -2.019850 0.930506 1.131031 14.459768 1.172569 2.774300 1.955784 -34.083870 35.436852 61.989677 178.314041 54.988887 179.956592 0.000000 0.000000 0.000000 
0.534910 45.810867 6.470437 0.000000 0.000000 0.000000 -86.845083 -5.567596 -1.040772 -6.775210 14.898463 18.012611 9.123566 3.510265 3.919709 8.497033 31.072026 -23.961728 -6.228057 0.200610 1.231454 0.000000 0.000000 0.000000 -88.074333 -3.046893 0.050841 -5.031136 -16.568306 -14.551855 14.400769 -1.485939 -9.056796 18.037556 -33.798453 33.548424 -12.235012 1.537376 -1.652192 0.000000 0.000000 0.000000 -86.273444 -6.988698 -3.096337 3.390243 1.203747 0.199342 15.964830 3.368360 -1.428923 0.628761 0.069718 -0.171165 0.000000 0.000000 0.000000 14.446400 3.322019 -2.017124 -0.339203 0.489764 -3.365730 22.514054 4.836100 -8.892303 0.000000 0.000000 0.000000 16.196870 2.775083 -1.407534 -0.284651 6.008202 1.460604 -0.395780 -1.242632 -2.642591 17.787105 -49.195728 -40.740480 -0.956231 -81.404039 -0.698076 0.000000 0.000000 0.000000 14.769314 3.030429 -1.817811 0.943917 0.603827 14.537680 0.833882 3.125893 2.107034 -33.312212 36.793187 61.081016 178.211861 55.617971 -179.906063 0.000000 0.000000 0.000000 
0.512082 45.803223 6.443892 0.000000 0.000000 0.000000 -86.555217 -5.881245 -1.518920 -7.116330 14.533785 18.052328 9.138263 3.807202 3.697607 8.995357 31.226177 -23.784783 -6.398622 0.180283 1.151164 0.000000 0.000000 0.000000 -87.735276 -3.392456 -0.503747 -5.361087 -16.665523 -14.396762 13.493059 -1.499464 -8.746049 19.327033 -33.228843 33.913156 -13.193346 1.488885 -1.535404 0.000000 0.000000 0.000000 -85.900263 -7.195528 -3.404412 2.786972 0.963930 0.284027 15.327882 2.906571 -1.197070 0.701291 0.285520 -0.218251 0.000000 0.000000 0.000000 13.774868 2.914986 -1.770826 0.356126 0.315964 -3.082354 22.885811 4.591053 -8.956454 0.000000 0.000000 0.000000 15.598567 2.319992 -1.165061 -0.171129 5.372966 1.382803 -0.413435 -1.142897 -2.508580 19.010826 -47.861007 -41.957429 -1.528145 -81.821370 -1.508301 0.000000 0.000000 0.000000 14.299897 2.624102 -1.585019 0.908360 0.137580 14.438508 0.597016 3.284982 2.308579 -31.522218 38.058477 59.383775 178.148218 55.479058 -179.727986 0.000000 0.000000 0.000000 
0.482008 45.814064 6.461096 0.000000 0.000000 0.000000 -86.261977 -6.068912 -1.968001 -7.539408 14.308965 18.017209 9.152337 4.063348 3.402471 9.892254 31.236381 -23.668064 -6.566818 0.155704 1.137671 0.000000 0.000000 0.000000 -87.346932 -3.658751 -1.049767 -5.541104 -16.703038 -14.233655 12.712450 -1.640274 -8.495562 20.291488 -33.042112 33.996041 -14.003949 1.434866 -1.458984 0.000000 0.000000 0.000000 -85.461895 -7.307466 -3.747026 2.329750 0.730734 0.428000 14.519514 2.375546 -0.936692 0.743577 0.597265 -0.264328 0.000000 0.000000 0.000000 12.922633 2.429055 -1.483747 0.788440 0.183385 -2.816950 23.028061 4.298361 -9.090328 0.000000 0.000000 0.000000 14.797291 1.808771 -0.902797 -0.066791 4.780146 1.359788 -0.594547 -1.060253 -2.508019 20.348460 -46.326127 -43.369898 -2.602340 -82.058139 -2.775830 0.000000 0.000000 0.000000 13.627626 2.155859 -1.336557 0.791667 -0.255564 14.262948 0.537828 3.164947 2.470056 -29.023888 38.972581 57.100084 178.167247 54.722383 -179.561357 0.000000 0.000000 0.000000 
